<svg width="442" height="442" viewBox="0 0 442 442" fill="none" xmlns="http://www.w3.org/2000/svg">
<g clip-path="url(#clip0_25_19)">
<path fill-rule="evenodd" clip-rule="evenodd" d="M218.225 55.2502C267.934 55.2502 308.227 97.6661 308.227 149.988C308.227 202.314 267.934 244.73 218.225 244.73C168.519 244.73 128.224 202.314 128.224 149.988C128.224 97.6661 168.519 55.2502 218.225 55.2502Z" fill="#471E00"/>
<path fill-rule="evenodd" clip-rule="evenodd" d="M221.242 94.8694C260.944 94.8694 292.131 118.624 287.157 175.557C285.741 191.764 300.026 183.204 300.026 189.06C300.026 237.408 263.405 276.601 218.225 276.601C173.051 276.601 136.426 237.408 136.426 189.06C146.068 204.538 147.544 184.905 147.11 175.851C143.544 101.734 179.621 94.8694 221.242 94.8694Z" fill="#FAD3A8"/>
<path d="M233.764 201.843L229.514 197.087L229.627 196.97L229.745 196.86L229.867 196.758L229.991 196.663L230.119 196.576L230.25 196.497L230.384 196.425L230.52 196.361L230.658 196.305L230.798 196.257L230.939 196.216L231.082 196.182L231.226 196.157L231.37 196.139L231.515 196.129L231.66 196.126L231.805 196.131L231.95 196.144L232.095 196.164L232.238 196.192L232.38 196.227L232.521 196.27L232.66 196.321L232.798 196.379L232.933 196.445L233.065 196.519L233.195 196.6L233.322 196.689L233.445 196.786L233.565 196.89L233.682 197.001L233.794 197.121L233.9 197.246L234 197.376L234.093 197.51L234.178 197.648L234.257 197.789L234.329 197.934L234.394 198.081L234.452 198.231L234.503 198.383L234.546 198.537L234.584 198.693L234.614 198.851L234.637 199.009L234.653 199.169L234.663 199.329L234.665 199.489L234.661 199.649L234.649 199.809L234.631 199.968L234.606 200.126L234.573 200.283L234.535 200.439L234.488 200.592L234.435 200.744L234.376 200.893L234.309 201.039L234.235 201.183L234.155 201.322L234.067 201.459L233.973 201.591L233.872 201.719L233.764 201.843ZM202.688 201.843L206.938 197.087L207.532 197.701L208.147 198.275L208.78 198.808L209.433 199.302L210.103 199.756L210.789 200.171L211.489 200.547L212.203 200.883L212.929 201.18L213.666 201.437L214.411 201.655L215.165 201.834L215.925 201.974L216.689 202.073L217.457 202.132L218.226 202.152L218.995 202.132L219.763 202.073L220.527 201.973L221.287 201.834L222.04 201.656L222.786 201.437L223.523 201.18L224.249 200.883L224.963 200.547L225.663 200.171L226.349 199.756L227.019 199.302L227.672 198.808L228.306 198.275L228.92 197.701L229.514 197.087L233.764 201.843L232.946 202.689L232.097 203.481L231.22 204.218L230.318 204.902L229.391 205.53L228.443 206.104L227.476 206.623L226.491 207.087L225.49 207.496L224.477 207.85L223.452 208.15L222.418 208.395L221.376 208.586L220.329 208.722L219.279 208.803L218.226 208.831L217.173 208.803L216.123 208.722L215.076 208.586L214.034 208.395L213 208.15L211.975 207.85L210.962 207.496L209.961 207.087L208.977 206.623L208.009 206.104L207.061 205.53L206.134 204.902L205.232 204.218L204.355 203.481L203.506 202.689L202.688 201.843ZM206.938 197.087L202.688 201.843L202.581 201.719L202.479 201.591L202.385 201.459L202.297 201.322L202.217 201.182L202.143 201.039L202.076 200.893L202.017 200.744L201.964 200.592L201.918 200.438L201.879 200.283L201.846 200.126L201.821 199.968L201.803 199.809L201.792 199.649L201.787 199.489L201.789 199.328L201.799 199.168L201.815 199.009L201.838 198.851L201.869 198.693L201.906 198.537L201.95 198.383L202 198.23L202.058 198.081L202.123 197.933L202.195 197.789L202.274 197.648L202.359 197.51L202.452 197.376L202.552 197.246L202.658 197.121L202.77 197.001L202.887 196.89L203.007 196.786L203.13 196.689L203.257 196.601L203.387 196.519L203.519 196.446L203.655 196.379L203.792 196.321L203.931 196.27L204.072 196.227L204.214 196.192L204.358 196.164L204.502 196.144L204.647 196.131L204.792 196.126L204.937 196.129L205.082 196.139L205.227 196.157L205.37 196.183L205.513 196.216L205.655 196.257L205.794 196.306L205.932 196.362L206.068 196.426L206.202 196.497L206.333 196.576L206.461 196.663L206.586 196.758L206.707 196.86L206.825 196.97L206.938 197.087Z" fill="#C99154"/>
<path fill-rule="evenodd" clip-rule="evenodd" d="M245.77 81.8136C277.428 95.8227 303.094 116.532 303.094 128.07C303.094 139.607 277.428 137.604 245.77 123.595C214.112 109.586 188.448 88.8767 188.448 77.3387C188.448 65.8014 214.111 67.8034 245.77 81.8136Z" fill="#471E00"/>
<path fill-rule="evenodd" clip-rule="evenodd" d="M125.771 159.268C130.291 157.129 137.443 165.578 141.74 178.138C146.039 190.7 145.857 202.616 141.333 204.754C136.811 206.893 129.662 198.444 125.366 185.885C121.064 173.321 121.248 161.406 125.771 159.268ZM309.592 159.268C303.724 157.129 295.916 165.578 292.157 178.138C288.397 190.7 290.112 202.616 295.984 204.754C301.854 206.893 309.66 198.444 313.418 185.885C317.177 173.321 315.462 161.406 309.592 159.268Z" fill="#FAD3A8"/>
<path fill-rule="evenodd" clip-rule="evenodd" d="M161.888 89.4958C144.272 101.796 143.385 122.971 143.385 129.087C143.385 135.205 157.668 130.195 175.284 117.894C192.902 105.593 207.185 90.6627 207.185 84.5442C207.185 78.4257 179.506 77.1947 161.888 89.4958Z" fill="#471E00"/>
<path fill-rule="evenodd" clip-rule="evenodd" d="M180.907 333.544H255.544V216.666H180.907V333.544Z" fill="#E6B683"/>
<path fill-rule="evenodd" clip-rule="evenodd" d="M218.225 55.2502C267.934 55.2502 308.227 97.6661 308.227 149.988C308.227 202.314 267.934 244.73 218.225 244.73C168.519 244.73 128.224 202.314 128.224 149.988C128.224 97.6661 168.519 55.2502 218.225 55.2502Z" fill="#333333"/>
<path fill-rule="evenodd" clip-rule="evenodd" d="M287.158 175.557C285.742 191.764 300.027 183.204 300.027 189.061C300.027 237.408 263.403 276.601 218.226 276.601C173.049 276.601 136.427 237.408 136.427 189.061C146.069 204.536 147.545 184.905 147.111 175.851C145.035 132.696 170.863 104.963 171.677 94.7687C169.472 103.692 214.218 129.973 259.117 130.37C268.027 130.449 270.648 127.083 275.529 133.731C281.502 141.867 287.425 165.691 287.158 175.557Z" fill="#FAD3A8"/>
<path fill-rule="evenodd" clip-rule="evenodd" d="M367.387 352.648C350.138 338.97 272.437 297.59 255.545 291.404C252.417 302.924 234.428 311.98 217.855 311.98C201.284 311.98 184.034 304.685 180.908 293.165C164.013 299.351 91.8601 338.97 74.6136 352.648C107.389 398.087 327.525 398.149 367.387 352.648L367.387 352.648Z" fill="#0288D1"/>
<path fill-rule="evenodd" clip-rule="evenodd" d="M308.716 159.268C302.844 157.129 295.04 165.578 291.28 178.138C287.523 190.7 289.234 202.616 295.104 204.754C300.976 206.893 308.783 198.444 312.54 185.885C316.299 173.321 314.588 161.406 308.716 159.268ZM127.738 159.268C133.61 157.129 141.414 165.578 145.173 178.138C148.933 190.7 147.221 202.616 141.349 204.755C135.479 206.893 127.672 198.444 123.915 185.884C120.156 173.322 121.868 161.406 127.738 159.268Z" fill="#FAD3A8"/>
</g>
<defs>
<clipPath id="clip0_25_19">
<rect width="442" height="442" fill="white"/>
</clipPath>
</defs>
</svg>
